<?xml version="1.0" encoding="UTF-8"?>
<svg viewBox="0 0 272.42 335.1" xmlns="http://www.w3.org/2000/svg">
 <path d="m261.81 232.82c0.67502-0.091003 1.392-0.146 2.186-0.12-0.151-0.30701-0.36801-0.5-0.57101-0.716-0.52298 0.28998-1.065 0.56702-1.617 0.836h0.001984z"/>
 <path d="m218.72 221.07c0.57398-0.545 1.158-1.081 1.739-1.626 0.40298-0.37799 0.798-0.771 1.179-1.176 0.13202-0.142 0.26202-0.284 0.39102-0.433 0.45499-0.51601 0.88797-1.055 1.256-1.662-0.54898-0.168-1.082-0.213-1.599-0.171-0.28003 0.022003-0.552 0.119-0.82303 0.19301-0.22299 0.05899-0.44498 0.091003-0.66098 0.17799-0.375 0.158-0.73602 0.368-1.098 0.601-0.089996 0.059006-0.18399 0.104-0.27399 0.164-0.423 0.298-0.836 0.63301-1.239 1.001-0.01001 0.007004-0.019989 0.016998-0.028992 0.022003-0.74899 1.137-1.763 2.18-2.928 3.18-0.006012 0.007004-0.01004 0.009995-0.016022 0.016998-0.003998 0.003006-0.006989 0.005997-0.009979 0.01001-0.43301 0.51298-0.85004 1.017-1.259 1.484-0.39998 0.46201-0.79098 0.89101-1.172 1.256-0.020004-0.291 0.061996-0.56799 0.089996-0.855-0.41901 0.319-0.836 0.63899-1.262 0.965-0.13901 0.106-0.28101 0.217-0.42001 0.326-0.329 0.255-0.65799 0.51399-0.987 0.774-0.185 0.148-0.37099 0.301-0.556 0.452-0.27699 0.229-0.55499 0.46201-0.82599 0.7-0.19 0.16501-0.37801 0.33301-0.56201 0.50101-0.25499 0.232-0.504 0.47499-0.74899 0.713-0.181 0.181-0.358 0.36099-0.532 0.546-0.23601 0.245-0.459 0.504-0.67801 0.76199-0.15799 0.19-0.31999 0.37801-0.472 0.574-0.213 0.27699-0.407 0.56799-0.601 0.85898-0.129 0.19302-0.265 0.384-0.384 0.58402-0.19398 0.332-0.36099 0.68399-0.52599 1.036-0.084 0.17801-0.181 0.345-0.255 0.52899-0.22301 0.54599-0.41299 1.113-0.549 1.711 0.829-0.487 1.582-0.99802 2.282-1.523 0.11299-0.083984 0.20599-0.17499 0.31599-0.259 4.451-3.454 6.724-7.434 11.543-9.674 0.47101-0.574 0.987-1.101 1.517-1.614 0.053009-0.046997 0.10202-0.095993 0.15402-0.145z"/>
 <path d="m213.5 220.03c0.18402-0.28101 0.37103-0.562 0.58801-0.839 0.18402-0.23599 0.37399-0.46899 0.577-0.704 0.24899-0.287 0.51001-0.56801 0.78101-0.849 0.17502-0.18201 0.33902-0.365 0.51999-0.543 0.46899-0.45801 0.95599-0.90601 1.453-1.346 0.11603-0.10399 0.23202-0.2 0.349-0.304 1.355-1.178 2.721-2.285 3.905-3.324 0.133-0.11301 0.28699-0.239 0.41299-0.353-0.006012 0-0.01001 0.003998-0.016022 0.003998-0.952 0.358-1.879 0.771-2.789 1.21-0.25198 0.123-0.5 0.252-0.75201 0.381-0.69397 0.35501-1.375 0.73601-2.044 1.14-0.21899 0.13301-0.44501 0.25801-0.66501 0.397-0.84201 0.535-1.668 1.097-2.466 1.7-0.13901 0.104-0.268 0.22-0.40602 0.326-0.66499 0.517-1.314 1.056-1.946 1.617-0.227 0.2-0.446 0.40399-0.66901 0.607-0.60399 0.562-1.19 1.146-1.766 1.746-0.136 0.142-0.27701 0.27701-0.41301 0.426-0.685 0.73901-1.343 1.508-1.979 2.295-0.168 0.20999-0.32901 0.42699-0.494 0.64-0.48 0.62-0.952 1.256-1.404 1.907-0.17099 0.246-0.345 0.491-0.51 0.739-0.574 0.855-1.133 1.728-1.652 2.621 0.37399-0.438 0.84299-0.897 1.35-1.362 0.106-0.097 0.216-0.196 0.32901-0.29701 2.414-2.14 5.962-4.548 9.234-7.149 0.016998-0.013 0.028992-0.026001 0.046021-0.036011 0.12198-0.217 0.28098-0.43399 0.42596-0.64999z"/>
 <path d="m261.8 232.82c0.552-0.26898 1.094-0.54602 1.617-0.836-0.52301 0.28998-1.065 0.56702-1.62 0.836h0.002991z"/>
 <path d="m226.86 210.38c1.101-0.229 2.237-0.388 3.387-0.504-1.152 0.116-2.286 0.271-3.39 0.504h0.002991z"/>
 <path d="m221.67 212.12c-1.185 1.039-2.55 2.146-3.905 3.324 1.362-1.18 2.72-2.285 3.905-3.324z"/>
 <path d="m266.07 236.14c-1.407-1.078-2.873-2.092-5.361-2.085 2.485-0.007019 3.954 1.01 5.361 2.085z"/>
 <path d="m205.63 236.77c4.105-5.555 8.408-11.598 11.239-13.715-2.831 2.117-7.134 8.153-11.239 13.715z"/>
 <path d="m213.35 222.85c0.409-0.468 0.82602-0.972 1.259-1.484-0.004028 0.002991-0.01001 0.005997-0.014038 0.009003-0.42297 0.513-0.83899 1.01-1.245 1.475z"/>
 <path d="m256.6 235.21c0.60602-0.30701 1.301-0.62302 2.036-0.948h-0.002991c-0.733 0.32898-1.43 0.64096-2.033 0.948z"/>
 <path d="m213.03 220.71c-3.272 2.602-6.82 5.01-9.234 7.149 2.417-2.139 5.962-4.548 9.234-7.149z"/>
 <path d="m258.44 234.28c0.36801-0.39099 0.84-0.67499 1.356-0.914 0.084015-0.037994 0.17401-0.070984 0.26102-0.103 0.517-0.20999 1.095-0.358 1.73-0.44601 0.007019-0.002991 0.01001-0.002991 0.013-0.005981h0.003998c0.55502-0.26898 1.097-0.54602 1.62-0.836-0.23502-0.24902-0.50702-0.44199-0.80102-0.591-0.005981-0.003998-0.01297-0.007019-0.019989-0.01001-0.88098-0.41598-1.976-0.45499-3.183-0.29398-0.02002 0.002991-0.038025 0.002991-0.058014 0.006989h-0.003998c-0.006012 0.002991-0.009003 0.01001-0.013 0.013-0.539 0.47198-1.01 1.011-1.439 1.591-0.087006 0.12299-0.181 0.242-0.26498 0.37198-0.423 0.63901-0.78802 1.333-1.039 2.143 0.604-0.30704 1.301-0.61902 2.033-0.94803-0.072021 0.011993-0.12402 0.006012-0.19501 0.022003z"/>
 <path d="m214.6 221.37c0.003021-0.003998 0.006012-0.007004 0.01004-0.009995 0.91598-1.104 1.897-2.23 2.931-3.183-1.039 0.95599-2.021 2.086-2.941 3.193z"/>
 <path d="m222.49 211.41c-0.12201 0.11299-0.271 0.235-0.39899 0.349 0.002991 0 0.002991 0 0.005981-0.003006 0.12601-0.114 0.27399-0.233 0.393-0.34599z"/>
 <path d="m205.51 232.5c4.461-3.447 6.727-7.434 11.543-9.674-4.82 2.24-7.092 6.22-11.543 9.674z"/>
 <path d="m222.09 211.76c-0.007019 0.003006-0.014008 0.007004-0.02002 0.007004 0.006012 0 0.01001-0.003998 0.016022-0.003998l4e-3 -3e-3z"/>
 <path d="m258.64 234.26h0.003998c0.035004-0.016998 0.074005-0.036011 0.112-0.052002-0.037994 0.015991-0.076996 0.032013-0.116 0.052002z"/>
 <path d="m213.03 220.71c0.016998-0.013 0.028992-0.022003 0.041992-0.031998 0-0.004013 0-0.004013 0.004028-0.004013-0.016022 0.01001-0.029022 0.02301-0.046021 0.036011z"/>
 <polygon points="259.37 231.09 259.36 231.09 259.36 231.09"/>
 <path d="m214.63 221.34c1.165-1 2.179-2.043 2.928-3.18 0 0.003998-0.003021 0.003998-0.007019 0.007004-0.74799 1.133-1.759 2.169-2.921 3.173z"/>
 <path d="m22.579 11.503c-0.231 3.197 11.495 9.621 13.486 3.967-0.272-8.243-12.994-10.781-13.486-3.967z"/>
 <path d="m42.411 17.85c-1.041-3.491 4.477-4.978 0.79401-6.346-0.691 1.162-1.188 2.515-3.173 2.38-0.376 2.492 0.989 3.241 2.379 3.966z"/>
 <path d="m56.691 18.644c-2.745-2.503-7.452-7.074-11.899-3.173 0.676 5.182 9.878 10.855 11.899 3.173z"/>
 <path d="m19.405 24.195c-0.695-2.74-1.667-5.207-3.965-6.346-5.36 4.077-3.246 15.099 0 20.626-0.983-7.063 1.254-10.908 3.965-14.28z"/>
 <path d="m69.383 24.989c0.25-1.073 1.129-1.515 0.792-3.173h-2.379c-0.222 1.808 0.191 2.983 1.587 3.173z"/>
 <path d="m31.305 35.303c-1.561-3.199-1.416-8.105-5.554-8.727-0.578 1.801-2.387 2.373-3.965 3.173 0.90401 3.856 2.713 6.806 7.139 7.14 0.208-1.115 1.74-0.905 2.38-1.586z"/>
 <path d="m78.902 33.716c0.649-0.576 2.129-5.491-0.792-4.76 0.046997 2.682-1.432 3.385 0.792 4.76z"/>
 <path d="m82.075 31.335c0.018005 1.869-1.365 2.335-0.792 4.76 2.24 0.757 3.917-5.158 0.792-4.76z"/>
 <path d="m88.421 34.509c-1.014-0.044003-1.098-1.017-2.379-0.792-0.034012 2.611-1.34 3.949-0.79401 7.138 3.109-0.064995 2.05-4.296 3.173-6.346z"/>
 <path d="m90.802 44.822c-0.44499-3.204 3.585-7.271 0-8.727-1.33 1.428-3.116 7.741 0 8.727z"/>
 <path d="m94.769 38.476c-0.481 2.797-3.12 6.417-1.588 8.727 2.886-0.24 3.965-8.2 1.588-8.727z"/>
 <path d="m10.679 71.794c-0.002998-5.292 1.264-9.314 5.554-10.313 0.207-2.322-1.793-2.437-1.586-4.759 0.938-0.386 1.798-0.846 2.38-1.587-1.248-0.075996-2.751 0.10601-2.38-1.586 1.164-0.007996 6.491 0.299 3.967-0.79399-1.81 0.223-2.983-0.19001-3.173-1.586 0.991-1.653 1.942-3.346 3.173-4.76-1.288-1.357-2.402-2.887-2.381-5.554-3.678-0.505-4.908 1.44-6.346 3.173 3.593 9.054-6.011 20.377 0.792 27.766z"/>
 <path d="m98.734 40.854c-0.88901 3.073-2.66 6.785-1.586 9.521 3.341 0.020004 4.511-8.279 1.586-9.521z"/>
 <path d="m102.7 44.822c-0.58899 2.095-2.902 6.565-0.79399 8.727 0.592-1.884 4.482-7.717 0.79399-8.727z"/>
 <path d="m106.67 46.408c-0.51199 3.738-3.974 8.693-1.586 12.692-0.02301-3.925 4.751-10.84 1.586-12.692z"/>
 <path d="m109.84 47.995c-1.152 5.193-1.595 11.097-3.173 15.865 2.531-2.886 6.161-12.705 3.173-15.865z"/>
 <path d="m113.81 48.789c-0.398 4.903-3.617 11.172-2.379 15.071 0.95099-3.954 5.638-12.143 2.379-15.071z"/>
 <path d="m117.77 50.375c-0.289 1.624-2.65 5.199-0.79399 6.346 0.35399-1.56 2.944-4.906 0.79399-6.346z"/>
 <path d="m30.511 65.448c0.926-2.912 0.66701-9.004-2.379-10.313-1.651 0.465-2.565 1.667-3.967 2.379 1.043 3.718 0.41 9.111 6.346 7.934z"/>
 <path d="m131.26 58.308c-3.614 1.774-3.83 8.573 0 10.313-0.177-2.877 3.694-9.083 0-10.313z"/>
 <path d="m138.4 65.448c-1.743 1.46-3.786 6.75-1.586 9.519-0.13301-3.068 5.605-7.747 1.586-9.519z"/>
 <path d="m139.19 82.107c0.907-2.621 4.842-8.563 1.586-10.313-0.41598 3.112-4.964 8.441-1.586 10.313z"/>
 <path d="m142.37 88.454c-0.909-3.611 5.092-7.686 0.79201-9.521-1.421 1.522-2.688 7.313-0.79201 9.521z"/>
 <path d="m144.74 94.005c-0.22299-3.157 4.634-6.885 0.79401-8.725-0.522 2.411-3.996 7.523-0.79401 8.725z"/>
 <path d="m147.13 99.559c0.836-2.098 4.37-7.148 0.79401-8.727-0.86801 1.818-2.902 6.566-0.79401 8.727z"/>
 <path d="m150.3 103.52c0.601-1.727 3.118-5.583 0-6.346-0.17799 1.487-2.047 5.259 0 6.346z"/>
 <path d="m58.277 298.67c-2.831 5.442 4.243 7.225 3.966 12.692 11.026 4.958 20.813 0.643 30.146-3.173 3.223-1.317 6.67-1.117 9.519-3.173 5.957-4.297 7.912-11.653 13.486-18.244 6.088-7.198 16.913-10.762 13.486-21.421-4.152 5.104-6.333 12.18-13.486 14.28 6.022-5.655 13.925-13.519 15.073-21.42-5.313 3.944-5.481 13.031-12.692 15.074 3.033-4.906 10.207-9.881 8.725-16.659-2.356 6.633-5.643 12.337-12.692 14.28 1.433-5.452 10.673-7.299 8.727-13.486-2.768 5.7-10.394 10.752-14.28 12.692 3.211-7.102 11.746-8.88 13.486-17.453-5.854 4.461-9.896 10.729-16.659 14.279 2.571-7.246 15.96-11.129 11.9-19.832-4.753 3.974-6.38 11.072-14.279 11.898-6.908 9.129-15.458 20.213-30.146 23.799-13.06 3.187-27.72 4.959-38.078-2.379 6.191-12.072 13.443-27.256 17.454-38.87-3.782-0.83902-4.382 5.62-6.348 3.964 0.65501-3.573 3.764-4.7 5.554-7.141-5.194-0.16702-4.229 5.823-7.933 7.141-2.011-4.177 0.625-8.299 2.379-11.104-3.824-0.65204-1.551 4.793-4.76 4.758 0.129-3.073 3.827-6.708 2.381-8.726-0.538 0.875-2.638 4.116-3.173 2.379 1.042-2.13 2.129-4.216 3.173-6.346-2.612-0.29701-1.601-4.216-4.76-3.967-11.101 14.338-11.53 39.645-11.107 60.29 5.594 3.661 8.283 10.229 13.486 14.281 6.065 0.46399 14.212-3.019 17.452 1.587zm3.174 0.795c1.291 1.617 1.666 4.15 3.173 5.552 1.721 0.13599 0.35799-2.812 0.792-3.964 3.712 1.046 3.496 6.023 9.521 4.758-0.898-2.011-3.825-1.992-3.173-5.552 2.506 3.188 11.811 4.806 15.865 1.585 1.303 5.019-12.62 1.649-13.486 7.14-5.51-0.98798-16.196 0.94601-12.692-9.519z"/>
 <path d="m259.42 231.08c1.207-0.15802 2.312-0.13602 3.183 0.29401 0.006989 0.002991 0.013977 0.005981 0.019989 0.009979 0.29401 0.14801 0.565 0.34201 0.801 0.591 0.319-0.17801 0.633-0.358 0.93301-0.54599 0.016998-0.01001 0.03598-0.022034 0.052002-0.032013 0.26798-0.168 0.526-0.34198 0.77399-0.52002 0.049011-0.031982 0.093994-0.067963 0.143-0.10098 0.21298-0.15799 0.41299-0.319 0.604-0.47998 0.061981-0.054993 0.12598-0.10602 0.18399-0.15802 0.168-0.15199 0.31601-0.30699 0.46201-0.46199 0.063995-0.067001 0.13199-0.136 0.19-0.203 0.12601-0.148 0.232-0.3 0.336-0.455 0.054993-0.076996 0.116-0.158 0.164-0.239 0.091003-0.151 0.155-0.31 0.22299-0.465 0.036011-0.090012 0.084015-0.17401 0.11301-0.265 0.054993-0.16701 0.080994-0.339 0.10599-0.513 0.013-0.084 0.039001-0.16501 0.045013-0.252 0.019989-0.26201 0.006989-0.526-0.045013-0.804-0.643 0.32599-1.301 0.633-1.963 0.939-2.281 1.062-4.59 2.104-6.375 3.66-0.003021 0.002991-0.006012 0.002991-0.006012 0.006989 0.018005-0.002991 0.036011-0.002991 0.056-0.005981z"/>
 <path d="m259.42 231.08c1.207-0.16101 2.302-0.12201 3.183 0.29401-0.87201-0.43002-1.976-0.45203-3.183-0.29401z"/>
 <path d="m261.78 232.82c-0.63599 0.088013-1.214 0.23602-1.73 0.44601-0.086975 0.031006-0.17697 0.063995-0.26099 0.103-0.517 0.23901-0.98801 0.52301-1.356 0.914 0.070984-0.016998 0.12299-0.01001 0.19699-0.022003h0.002991c0.039001-0.019989 0.078003-0.036011 0.116-0.051971 0.97601-0.43704 2.015-0.89502 3.031-1.389z"/>
 <path d="m47.17 268.53c0.326 5.229 0.31 10.797 2.38 14.279h4.76c-3.199-5.79-4.367-13.615-8.727-18.244-2.387 5.017-5.012 9.794-7.933 14.277 2.233 0.67798 3.255 2.563 6.346 2.383-0.577-3.867-1.608-11.905 3.174-12.695z"/>
 <path d="m126.5 279.64c-9.242 4.558-12.408 19.819-22.211 26.973-4.231 3.086-11.115 4.025-17.453 6.346-3.811 1.395-5.704 3.819-9.519 3.968-6.23 0.23798-18.302-2.44-23.799-6.347-4.214-2.998-3.95-8.195-7.933-11.106-2.04 2.35 2.269 5.1 0.794 9.519 20.418 17.673 59.789 7.224 76.156-7.931 1.608-5.996 7.239-15.757 3.965-21.422z"/>
 <path d="m126.75 297.75c0.48099 0.45502 3.764 1.855 3.967 0-1.193-0.91699-3.341-2.786-3.967 0z"/>
 <path d="m53.517 304.23c0.91 2.292 3.179 7.356 6.348 4.758-2.747-0.95499-3.257-4.147-4.76-6.346-0.090996 0.96802-0.23799 1.879-1.588 1.588z"/>
 <path d="m28.925 24.195c4.319 11.984 14.745 20.405 22.213 30.146 5.539 7.226 13.064 11.537 17.451 19.04 7.465 12.763 15.073 23.61 21.419 36.491-9.332-3.625-10.665-15.249-15.865-23.005-12.124-18.023-27.88-32.411-41.251-49.185-0.918-0.865-4.973 1.864-8.727 0.794-2.3-2.724-3.076-6.971-5.552-9.519-1.679 7.752 1.488 16.117 4.759 21.419h5.552c3.72 2.732 2.882 5.649 3.967 10.312 1.156 4.974 5.62 8.927 7.933 13.486 9.261 18.253 23.84 31.85 29.352 50.771-8.615-6.228-10.237-18.331-15.865-26.972-3.885-5.965-10.023-9.347-13.486-15.073-1.296-6.9-5.069-11.325-7.933-16.659-2.644 0.26599-3.519 2.298-7.14 1.586-1.956-2.804-3.007-6.512-3.965-10.313 0.69501-2.476 3.741-2.604 4.759-4.759-9.706-0.23401-7.787 15.402-5.553 21.419 4.922 13.252 15.333 26.159 20.626 42.045 1.131 3.394 0.741 6.827 1.587 10.313 2.555 10.535 8.764 20.422 11.105 30.938 0.778 3.491 0.127 6.833 0.79399 10.313 2.855 14.926 14.338 23.36 18.244 34.903 8.699 6.11 13.076 16.543 19.832 24.594 7.988 7.35 19.479 11.194 30.94 15.071-0.354 2.292-5.995-0.70401-6.346 1.588 4.208 5.265 8.414 8.286 13.486 11.104 14.127-15.488 28.632-30.601 41.249-47.596-2.337-0.60701-5.555-4.448-3.173-7.141 2.072 1.365 1.721 5.155 4.761 5.553 1.179-0.937 3.545-0.685 3.174-3.174-4.112-3.015-4.319-7.775-5.556-15.865-0.77701-5.109-2.879-10.445-3.173-15.074-0.41299-6.552 1.427-13.205 0.79401-19.83-1.662-17.407-9.612-35.927-20.626-42.044-6.33-12.921-15.144-23.149-16.658-38.872-1.78-1.128-5.228-0.591-5.554-3.173-0.547-4.632 0.072998-5.75 0-11.105 1.16-1.75 6.285 0.466 6.346-2.381-11.472-4.357-20.344 11.056-19.039 20.626 0.51199 3.749 6.585 13.668 10.313 17.452 1.827 1.854 5.316 2.24 7.14 3.967 5.527 5.237 7.209 12.93 11.897 15.865-7.095 0.407-8.176-7.728-11.897-11.899-3.239-3.628-8.123-5.733-11.107-9.519-3.097-3.928-4.953-9.103-8.725-12.692-3.841-10.967-11.772-17.845-16.659-27.765-15.081-6.868-21.75-22.148-36.492-29.353-0.263 3.969-5.287 3.175-7.934 4.761 9.272 12.016 24.196 17.146 33.32 29.351 9.277 12.408 14.724 27.215 23.799 40.457 2.505 0.996 7.011 3.112 4.76 6.348-13.865-7.025-15.667-26.115-26.178-36.491-1.971-1.033-3.292 2.327-3.967 0 2.851-7.219-3.484-11.593-8.727-11.107-0.313-1.901 3.614 0.44 2.381-2.379-12.306-12.29-27.666-21.522-38.079-35.7-3.489 0.478-2.899 5.036-7.14 4.76-3.995-2.879-9.117-4.632-10.312-10.312 0.511-3.454 4.874-3.059 6.346-5.554-3.865-0.69-5.261 1.084-7.932 1.586-2.586 8.921 1.488 17.368 10.312 17.452zm11.107 24.594c-0.129 0.921 0.174 1.41 0.79201 1.586-1.514 1.13-3.444 1.843-5.552 2.379-0.105-3.013 2.074-3.742 4.76-3.965zm-1.587 7.139c0.116-1.733 1.998-1.703 3.965-1.587-0.577 1.612-2.386 3.239-3.965 1.587zm14.279 25.385c1.322 1.057 5.048-0.289 4.759 2.379 2.542-0.366 2.797-3.02 5.554-3.173-1.07 3.162-3.619 4.845-7.14 5.553 1.561-4.203-4.734-0.554-3.173-4.759zm5.553 6.346c1.521-1.652 3.041-3.305 5.552-3.967-0.35899 2.701-3.599 5.342-5.552 3.967zm-5.553-11.105c0.744-4.236 11.288-9.269 11.105-0.794-3.744-3.561-7.55-1.734-11.105 0.794zm-21.419 4.759c0.683 0.639 0.471 2.172 1.586 2.379-1.896 2.605-4.138-1.086-3.173-3.966 1.945-1.493 4.183-2.69 7.14-3.173 0.309 3.748-3.479 3.397-5.553 4.76zm20.627 23.005c-0.731 1.385-2.481 1.751-4.761 1.587 0.63699-1.683 3.266-3.093 4.761-1.587zm-9.521 0c-1.052-2.705 3.147-6.131 7.933-5.553-1.86 2.635-5.478 3.513-7.933 5.553zm4.759 5.554c0.415-2.76 4.271-2.077 6.346-3.173 0.615 3.786-3.241 3.104-6.346 3.173zm14.281 30.938c-0.16901-2.359 2.829-2.797 3.965-1.586-0.673 1.176-1.997 1.706-3.965 1.586zm-0.794-2.38c0.028992-2.615 2.256-3.033 4.759-3.173-1.146 1.497-1.772 3.516-4.759 3.173zm11.899 5.553c2.156 1.698-1.031 4.732-3.173 4.759 1.099-1.544 2.852-2.436 3.173-4.759zm2.381 5.554c-0.683 3.02-2.832 4.573-6.348 4.76 1.838-1.865 2.6-4.805 6.348-4.76zm-3.967 7.932c1.517-2.185 3.52-3.885 4.76-6.346 3.209 1.525-0.743 7.044-4.76 6.346zm3.967 3.174c-2.187-1.73 1.687-4.077 3.173-4.76 0.14 2.785-2.681 2.608-3.173 4.76zm1.586-51.565c0.637-2.996 4.078-0.058014 5.552 0.79401-1.39 5.091 4.676 2.729 4.76 6.346-3.864 0.69099-5.262-1.084-7.933-1.586 2.626-3.628-0.319-3.05-2.379-5.554zm5.552 8.727c1.976-1.743 5.211 0.064011 5.554 2.379-2.615-0.031006-5.613 0.326-5.554-2.379zm7.14 12.692c-1.178-0.93602-3.544-0.68602-3.173-3.173 2.484-0.36801 3.541 0.689 3.173 3.173zm42.836-48.39h0.001999c0.123 1.617-1.525 2.426-3.173 2.426-1.236 0-2.473-0.45499-2.961-1.364-0.162-0.303-0.242-0.659-0.211-1.062h6.343zm-4.354 6.414c-2.019-0.055-3.964-0.79301-4.772-2.287-0.27-0.497-0.41301-1.08-0.39-1.748 2.414 1.738 7.824 2.258 11.105 0.794-0.433 2.178-3.253 3.316-5.943 3.241zm-65.454-55.599c0.594-2.443-2.734-0.967-1.586-3.965 1.911 0.325 1.725-1.449 3.967-0.794-0.475 2.061 0.318 2.855 2.379 2.38-0.459 1.921-2.996 1.764-4.76 2.379zm18.246 18.246c0.105-2.539 1.799-3.489 4.76-3.173-1.045 1.599-2.604 2.684-4.76 3.173zm11.9 11.899c1.869 0.017998 2.335-1.367 4.759-0.792 0.757 2.24-5.16 3.917-4.759 0.792zm7.932 111.06c-0.24399-2.977 1.059-6.934-2.379-4.758 0.155-2.272 0.098999-4.332-2.38-3.97-0.508-3.191 1.031-8.433-0.79201-10.312 3.012-4.697 2.434 5.35 2.379 8.727 1.782-0.334 0.022995-4.209 1.586-4.76 4.001 0.153-1.165 11.248 3.967 7.933-0.176 2.998 0.80501 7.153-2.381 7.14zm10.313-53.945c1.93 0.98 5.148 0.67 5.554 3.173-1.997 1.599-5.436-0.43901-5.554-3.173zm3.968 28.559c-0.32599-1.911 1.447-1.724 0.79201-3.965 3.099-0.517 1.257 4.678-0.79201 3.965zm-2.381-21.419v-1.587h4.76c0.75099 2.867-3.126 1.108-4.76 1.587zm6.346 26.972c-2.347-1.39 0.45801-4.227 0-6.346 3.12 0.76199 0.60001 4.619 0 6.346zm3.967 11.104c0.44701-1.93 0.679-4.079 3.173-3.964-0.449 1.931-0.67999 4.081-3.173 3.964zm5.552 3.971c2.59 2.899-1.189 6.178-2.379 7.931-2.266-2.576 2.313-5.059 2.379-7.931zm-6.346 19.038c2.584 0.057999 1.693 3.593 2.381 5.552-3.163 0.517-2.273-3.015-2.381-5.552zm0-26.972c-3.683-1.37 1.835-2.855 0.79401-6.348 3.914 0.67099-0.085999 5.215-0.79401 6.348zm-3.966-26.181c2.415 0.229 5.415-0.125 5.552 2.381-2.613-0.030991-5.613 0.324-5.552-2.381zm4.76 40.461c1.076 0.24501 0.65701 1.985 0.79199 3.17-1.422-0.101-1.672 0.97501-3.173 0.79401 0.714-1.402 1.916-2.315 2.381-3.964zm-0.794 62.666c1.9 0.48102 3.62 1.144 6.346 0.79498-0.076004 2.391-7.281 2.594-6.346-0.79498zm3.967-43.628c2.479-2.428 3.893 2.94 4.759 4.758-3.342 0.171-2.795-3.551-4.759-4.758zm4.759-1.588c2.001 1.172 3.278 3.069 3.967 5.552-3.202 0.028992-3.997-2.347-3.967-5.552zm2.38 30.939c0.31599-2.062 2.366-2.392 2.379-4.762h9.92e-4c1.496 0.078003 1.654 1.072 1.172 2.138-0.483 1.062-1.604 2.188-2.669 2.537-0.30598 0.10001-0.60399 0.13501-0.883 0.087006zm2.38 3.173h-9.92e-4c0.16299-2.317 1.882-3.079 3.21-4.231 0.797-0.68799 1.454-1.521 1.551-2.909 3.339 1.32-1.419 7.311-4.76 7.14zm7.139-33.318c-2.018-0.097-3.076-1.155-3.173-3.173h0.001999c2.017 0.097 3.076 1.155 3.173 3.173h-0.001999zm-5.553-32.524c0.32001-0.056992 0.56601-0.037003 0.77 0.022003 0.153 0.044998 0.282 0.115 0.40199 0.192 0.36101 0.23399 0.638 0.55299 1.209 0.578 0.158 2.242-0.016998 4.149-0.394 5.854-0.127 0.56801-0.276 1.113-0.442 1.64-0.22299 0.70299-0.476 1.375-0.75 2.023-1.905-3.524 0.268-6.191-0.795-10.309zm5.554 19.038h-9.92e-4c-2.218-2.718-3.43-6.501-2.902-10.801 0.108-0.87801 0.261-1.769 0.522-2.686 2.11 5.188 3.298 4.881 2.381 13.487zm2.982 2.717c-0.323-1.227-0.491-2.569-0.46899-3.87 0.020004-1.301 0.229-2.557 0.65799-3.605h0.002014c1.217 3.012 1.318 7.14 1.587 11.104-0.78001-0.852-1.392-2.157-1.778-3.629zm2.62-44.317c-0.679-1.122-1.331-2.768-2.682-2.865-0.17-0.013-0.349 0-0.541 0.041h-0.001999c0.519-1.051 1.038-1.462 1.548-1.469 1.402-0.020996 2.729 3.029 3.74 4.333 0.092987 0.11801 0.181 0.22301 0.26799 0.30901-1.123 1.212-1.737 0.632-2.331-0.349zm3.125 52.707c-2.359-1.082-1.395-5.484-1.588-8.729 3.341 0.097 0.787 6.088 1.588 8.729zm3.173 6.346c-2.501-2.182-0.50299-4.147-0.79399-7.934 1.807 1.101 0.29698 5.523 0.79399 7.934zm6.346-2.382c2.285 0.888 2.347 3.999 5.552 3.967-0.668 3.315 1.543 3.748 1.588 6.347-3.635 0.72299-2.266-3.551-3.967-4.759-1.078 0.246-0.658 1.985-0.79401 3.174-2.783-0.921-2.43-4.975-2.379-8.729zm-3.174-3.173c3.387 0.31599 0.756 6.649 1.585 9.521-2.992-1.946-1.994-5.799-1.585-9.521zm-1.587-21.418c-2.575 0.46201-3.689-0.539-5.552-0.79401 0.19-1.145 6.53-1.843 5.552 0.79401zm0-5.555c-0.312 2.634-6.188 1.504-6.346-0.791 2.727-0.34799 4.448 0.31401 6.346 0.791zm-1.585-3.963c-1.801-0.58-6.191 1.428-5.555-1.588 1.843-0.577 5.93-2.008 5.555 1.588zm-5.723-29.718c-0.259-0.023987-0.523-0.075989-0.791-0.15199-1.879-0.528-3.867-2.245-3.799-4.243 3.56-0.125 4.229 2.646 6.346 3.967-0.44499 0.368-1.069 0.494-1.756 0.42799zm-8.977-16.784c0.147-0.059998 0.3-0.095001 0.457-0.11 0.946-0.089996 2.069 0.55701 3.283 1.177 1.214 0.62001 2.516 1.212 3.82 1.009-1.045 2.354-0.702 3.914 1.585 4.761-0.12599 0.92999-1.444 0.668-2.379 0.79201 0.074005 1.75 2.018 1.627 2.83 2.637 0.116 0.144 0.21001 0.312 0.271 0.51 0.068008 0.22801 0.097 0.496 0.070999 0.81999-0.44199 0.012009-0.849-0.009995-1.233-0.056-2.673-0.33398-4.063-1.955-6.701-2.324 1.963-2.87 0.804-2.723-0.43401-3.848-0.412-0.375-0.834-0.89101-1.151-1.706h2.379c-0.549-1.565-2.114-2.114-3.967-2.379 0.33402-0.70799 0.72801-1.104 1.169-1.283zm-2.754 21.908c0.371-0.007996 0.692 0.035995 0.97 0.121 0.244 0.07399 0.454 0.183 0.636 0.31799 1.28 0.94501 1.21 3.244 1.567 5.114-1.746-1.162-3.714-2.101-3.173-5.553zm2.381 61.085h-0.001999c-1.951-1.059-4.482-1.536-4.777-4.248-0.041992-0.38701-0.039001-0.819 0.020004-1.307 0.731 0.129 1.355 0.36101 1.893 0.68401 1.609 0.968 2.418 2.741 2.866 4.871zm-5.553-31.734c-0.58701-3.757 0.89101-5.454 0.79401-8.725 3.102 0.425 1.856 8.903-0.79401 8.725zm1.585-26.178h0.001007c-0.562 2.942 1.356 3.405 0.79399 6.348h-9.92e-4c-3.141 0.057983-4.235-6.463-0.79401-6.348zm-3.006 21.005c-0.255 0.241-0.573 0.38901-0.95801 0.41501v-8.727c1.531 0.44 2.748 6.629 0.95801 8.312zm-0.947-17.869c0.229-0.022003 0.489-0.013 0.78099 0.037003 0.77 2.366 0.207 4.831 0.79201 5.554-0.62801 0.92499-1.398 0.64999-2.015-0.13701-0.155-0.19699-0.298-0.426-0.429-0.67799-0.394-0.754-0.66-1.7-0.67801-2.552-0.020996-1.138 0.397-2.106 1.549-2.224zm-1.6 3.212c-0.711 2.323-0.711 2.437 0 4.759-3.863 1.432-2.993-5.944 0-4.759zm-7.138-30.94c1.769-2.478 3.665 1.561 5.552 1.586-1.909 2.62-4.216-1.008-5.552-1.586zm-2.381-7.138c2.653-2.256 3.694 2.179 6.346 2.379-1.683 1.888-6.741 0.44-6.346-2.379zm3.173-7.14c0.13402 1.721-2.813 0.35999-3.965 0.794 1.083-3.465-3.073-1.688-2.38-4.761 4.036-0.598 5.17 1.705 6.345 3.967zm-8.724-7.933c2.847-0.468 3.836 0.922 5.552 1.587-0.856 1.563-6.581 1.354-5.552-1.587zm-1.589 26.179c-2.531 0.679-2.453-1.25-3.965-1.587 0.35998-1.559 5.565-1.427 3.965 1.587zm-1.585-3.968c-5.358 1.128-5.333-3.129-8.727-3.965 0.79701-3.155 4.781-0.76201 7.139-0.79399-2.544 2.532 1.672 2.356 1.588 4.759zm-3.967-8.725c-0.511 3.431-7.29 2.999-7.14-0.79401 3.11 1.235 4.949-0.38501 7.14 0.79401zm-3.967-4.76c-3.22 0.312-5.526-0.29-5.552-3.174 2.594 0.315 5.128 0.689 5.552 3.174zm-3.173-7.934c-0.681 1.638-5.521 0.838-6.346 0 1.322-2.561 4.309-0.908 6.346 0zm-5.552 60.291c-1.899 1.804-3.231-1.432-3.173-3.967 2.494-0.11301 2.724 2.035 3.173 3.967zm-5.554-80.915c-0.549 1.567-2.116 2.114-3.967 2.379-0.363-2.478 1.697-2.536 3.967-2.379zm-4.759 0.792c-2.118-1.161 0.333-4.353 2.379-3.966 1.017 3.132-2.312 1.92-2.379 3.966zm1.586-6.346c0.36299 2.479-1.695 2.536-3.967 2.38 0.72501-1.391 1.475-2.756 3.967-2.38zm-19.04-3.173c0.351-2.293 1.674-3.617 3.967-3.967-0.349 2.295-1.671 3.617-3.967 3.967zm10.314 2.381c-0.622 3.351-2.965 2.913 1.586 2.379-0.247 2.663-2.653 3.165-4.76 3.967-0.373-2.207-0.389-2.223-3.173-3.173 0.935-2.239 3.934-2.413 6.347-3.173zm-4.76-8.727c-3.515 0.187-4.971 2.434-6.346 4.759-4.721-1.944 5.717-10.606 6.346-4.759zm-28.559-19.04c1.001-2.172 3.378-2.968 5.554-3.965-0.53 2.643-2.04 4.306-5.554 3.965zm3.173-7.138c-0.521 3.179-2.499 4.905-6.346 4.759 1.564-2.138 3.609-3.794 6.346-4.759z"/>
 <path d="m40.032 190.79c-1.201 2.767-4.593 3.341-8.727 3.173 3.683 14.031 8.384 27.05 18.246 34.903 4.953 9.325 8.619 19.938 18.246 24.594 3.244 0.81897 7.646-1.282 8.727 0-8.367 6.646-18.359-3.192-22.213-8.726-13.373 18.596 5.419 46.278 26.972 32.524-0.73399-3.141 2.888-3.102 2.379-7.934 2.658 0.742 5.002-2.848 6.346-0.79401 0.425 1.143-3.091 1.937-0.79199 2.382 5.337-12.379 22.424-13.012 23.798-29.352-3.622-2.089-11.614-3.157-11.105 0.79098-0.357-1.295 4.324-1.295 3.967 0-4.056 2.088-8.218 9.626-11.899 7.14-2.499 2.806-5.993 8.8-10.313 7.141 7.697-5.262 10.927-14.987 19.833-19.038-20.66-11.072-29.167-34.297-44.424-50.772-0.52 1.143-2.272 5.029-3.173 3.174 0.20699-2.438 1.72-3.567 2.38-5.553-3.153-0.47101-3.915 5.549-6.346 3.174 1.105-2.422 6.372-7.031 3.173-8.729-1.233 3.267-2.111 6.882-6.348 7.14 9.535-10.322 2.352-35.026-4.76-45.216-1.544 1.628-2.474 3.871-5.552 3.967 0.30801-3.659 3.039-4.894 4.76-7.14-1.148-11.546-4.455-20.932-8.727-29.352-4.729 0.444-5.825 5.499-11.105 3.173-0.319 3.757 1.416 5.458 0.792 9.519 11.182 8.331 22.542 42.608-0.792 42.043 18.904-5.633 8.775-28.354 0.792-38.871-4.046 0.931-9.333 9.84-12.692 3.967 13.68 1.477 9.364-19.144 8.727-29.353-3.811-0.26301-6.801 2.193-7.933-1.586 9.579 1.381 11.801-4.592 11.898-12.692-1.417-0.003006-4.614 2.137-5.552 0 4.198-3.249-0.17-12.861-3.173-20.626-8.469 14.11-8.062 33.789-11.109 49.979-0.923 4.903-3.632 11.067-1.587 15.072 5.486 10.743 14.024 21.92 17.454 35.699 2.705 10.868 2.718 17.369 7.933 24.594 3.359 1.62 7.228 3.444 11.899 1.585zm18.245 61.081c3.544 3.861 7.758 7.05 11.106 11.107-5.683-1.723-9.835-4.97-11.106-11.107zm33.319 11.108c-0.17902 3.322-5.168 4.955-7.14 3.967 2.233-1.468 4.057-3.347 7.14-3.967zm-26.18-26.178c0.241 2.088-1.098 2.604-3.173 2.379-0.23901-2.089 1.099-2.602 3.173-2.379zm-7.139-1.589c0.062004-2.582 3.595-1.691 5.552-2.379 0.062004 2.705-2.938 2.351-5.552 2.379zm0-36.491c0.012001-2.366 2.063-2.695 2.379-4.758 1.495 0.78401-0.392 4.832-2.379 4.758zm1.587-8.725c2.154 1.697-1.033 4.731-3.173 4.761 0.52-2.124 2.271-3.019 3.173-4.761zm0.793 40.458c-1.382 1.701-5.902 2.257-6.346-0.79399 1.063-0.96901 4.591 0.070999 6.346 0.79399zm-32.525-114.23c0.92099-2.516 4.921-1.955 5.552-4.759 1.453 1.762-1.993 5.376-5.552 4.759zm2.379 3.174c-0.59699-2.978 3.031-1.73 3.173-3.967 1.651 0.94-0.365 4.861-3.173 3.967zm11.107 43.629c-2.242-1.784 1.303-4.461 1.587-6.346 2.088 1.632-1.629 4.137-1.587 6.346zm1.587-10.311c-0.914 3.846-2.376 7.143-6.346 7.933 2.555-2.205 2.167-7.352 6.346-7.933zm-26.973-51.564c4.028 1.156-1.572 3.801-3.173 1.586-0.568-2.154 3.742 0.56801 3.173-1.586zm0.794-14.279h4.76c0.75 2.866-3.125 1.105-4.76 1.586v-1.586zm-0.794 3.173h3.967c-0.809 1.837-1.596 3.692-3.967 3.965-1.488-1.512 0.472-1.434 0-3.965zm2.381 39.665h3.173c0.925 2.753-4.432 3.688-3.173 0z"/>
 <path d="m25.751 91.626c-3.62 4.282-1.746 13.483-1.586 19.038 7.218-2.201 10.76-5.77 2.38-2.379 0.297-2.129 5.418-3.512 3.173-5.554-0.718 1.374-2.92 2.192-3.173 0 1.178-0.938 3.544-0.686 3.173-3.173-1.152-0.434-4.101 0.926-3.967-0.794 0.741-0.846 2.926-0.247 2.381-2.379-5.531 0.211 1.708-3.524-2.381-4.759z"/>
 <path d="m72.556 143.98c-0.321 2.322-2.074 3.215-3.173 4.759 2.142-0.027008 5.329-3.061 3.173-4.759z"/>
 <path d="m274.3 228.73c-11.155-2.327-13.638-13.331-20.623-19.832-28.16-2.831-30.849 18.099-42.837 31.733-5.197 5.907-10.979 10.694-13.486 15.865-9.858 20.333-11.459 56.785-28.561 65.049 18.079-23.173 17.985-64.517 39.664-84.087-3.195-0.25201-4.464 5.536-6.346 3.967 0.564-0.71698 1.146-1.481 1.733-2.263 0.10901-0.142 0.216-0.28 0.32201-0.426 0.481-0.643 0.972-1.304 1.463-1.97 4.105-5.562 8.408-11.598 11.239-13.715l0.003021-0.002991c0-0.003998 0.003967-0.003998 0.003967-0.007004 0.058014-0.070999 0.11203-0.142 0.17102-0.213-4.816 2.24-7.082 6.227-11.543 9.674-0.11 0.084015-0.203 0.17502-0.31601 0.259-0.7 0.52499-1.453 1.036-2.282 1.523 0.136-0.59799 0.326-1.165 0.549-1.711 0.074005-0.18497 0.171-0.35196 0.255-0.52896 0.16501-0.35303 0.332-0.70404 0.526-1.036 0.119-0.20001 0.255-0.39099 0.384-0.58402 0.19299-0.29098 0.388-0.582 0.601-0.85899 0.151-0.196 0.313-0.384 0.472-0.574 0.21899-0.258 0.44099-0.517 0.67799-0.76199 0.17401-0.185 0.352-0.365 0.53201-0.546 0.245-0.23799 0.49399-0.48 0.74899-0.713 0.18401-0.168 0.371-0.336 0.562-0.50099 0.271-0.23801 0.54901-0.47101 0.826-0.70001 0.185-0.151 0.371-0.304 0.556-0.452 0.329-0.261 0.658-0.52 0.987-0.774 0.13901-0.10899 0.28101-0.22 0.42-0.326 0.423-0.32599 0.849-0.648 1.262-0.96799h0.003998v-0.004013c0.057999-0.58699 0.226-1.162 0.44499-1.733 0.10901-0.27701 0.203-0.55801 0.354-0.82901-0.013 0.01001-0.024994 0.020004-0.041992 0.031998-3.272 2.602-6.817 5.01-9.234 7.149-0.11301 0.101-0.22299 0.2-0.329 0.297-0.507 0.46501-0.976 0.92401-1.35 1.362 0.52-0.894 1.078-1.766 1.652-2.621 0.16499-0.248 0.33899-0.49301 0.51-0.73901 0.452-0.65099 0.924-1.287 1.404-1.907 0.16501-0.213 0.326-0.42999 0.494-0.64 0.636-0.787 1.294-1.556 1.979-2.295 0.136-0.148 0.27699-0.284 0.41299-0.426 0.57501-0.601 1.162-1.185 1.766-1.746 0.22299-0.203 0.442-0.407 0.66901-0.607 0.63199-0.56201 1.281-1.101 1.946-1.617 0.13899-0.106 0.26799-0.22301 0.40599-0.326 0.798-0.604 1.624-1.165 2.466-1.7 0.22-0.14 0.44601-0.265 0.66501-0.397 0.66901-0.403 1.35-0.784 2.044-1.14 0.25201-0.129 0.50003-0.258 0.75201-0.381 0.91-0.438 1.837-0.852 2.789-1.21 0.006012 0 0.013-0.003998 0.02002-0.006989 0.129-0.11301 0.27698-0.235 0.39899-0.349-3.838 0.13899-9.486 5.311-14.28 7.137 1.898-4.713 5.743-7.479 10.313-9.519-4.881-0.11-11.007 5.381-15.865 7.934 3.954-5.833 9.861-9.706 18.247-11.106 0.22403 1.281-0.75198 1.365-0.79398 2.382 0.82999-0.11 1.553-0.11299 2.205-0.044998 0.23202 0.025009 0.41299 0.097 0.62601 0.13901 0.39099 0.076996 0.78799 0.151 1.123 0.28 0.22 0.084 0.40701 0.2 0.607 0.301 0.28403 0.145 0.57803 0.28 0.836 0.451 0.19003 0.13 0.371 0.269 0.55502 0.40399 0.26901 0.203 0.543 0.40001 0.798 0.61301 1.104-0.232 2.237-0.388 3.39-0.504 0.27301-0.029007 0.552-0.055008 0.82901-0.076996 1.169-0.091003 2.347-0.143 3.561-0.11301-6.217-6.11-16.301-13.177-26.179-13.486-15.216-0.47501-26.033 13.099-34.903 21.421-14.286 13.396-26.82 29.426-39.665 41.249-4.285 11.033-2.503 29.148 1.585 38.874 7.682-2.896 18.183-2.977 26.182-5.556-0.855-3.696-6.082-9.958-0.795-12.692-0.968 5.991 3.051 6.995 3.174 11.898 5.98-0.10001 8.773-3.39 13.485-4.758-8.379 13.951-32.098 5.807-45.218 14.28-10.799 6.972-12.08 27.047-6.346 38.076 12.061 2.515 23.165 0.203 34.904-1.585 28.277-15.09 23.894-57.186 43.632-84.884 3.057-4.29 7.915-8.096 11.104-12.692 7.97-11.481 15.987-32.87 33.318-22.211-2.211 2.827-9.181 5.077-7.931 8.725 3.689-1.61 5.816-8.971 11.104-6.346-4.877 3.583-8.528 8.396-14.28 11.107 0.51001-5.859-4.041 1.697-4.758-0.79501 0.84302-3.821 10.542-10.016 7.14-10.312-4.563 3.905-10.98 10.164-14.28 12.691 2.883-7.166 9.387-10.71 13.486-16.659-13.024 4.442-14.448 15.991-22.211 26.973-9.045 12.796-19.532 22.554-20.626 38.87 3.092-3.782 4.08-9.67 7.934-12.691-9.16 21.778-17.137 44.742-30.146 62.67 18.887-12.054 19.552-46.553 34.903-59.497-11.521 20.739-15.038 49.483-34.903 61.876 26.976-10.042 25.595-52.673 44.423-68.222-7.424 12.673-15.717 28.705-18.244 43.631 12.883-28.899 26.792-56.769 51.562-73.776-1.252-1.392-3.641-1.646-3.967-3.968 2.385-1.601 5.978-6.155 9.519-3.964-0.49002 2.415-4.264 1.55-4.758 3.964 0.45898 0.064972 0.952 0.061981 1.462 0.022003 1.585-0.11902 3.367-0.604 5.001-0.82901 0.003021-0.002991 0.006012-0.002991 0.009003-0.002991 0.003998-0.003998 0.007019-0.003998 0.01001-0.006989 1.785-1.559 4.087-2.602 6.375-3.66 0.66202-0.30701 1.32-0.61301 1.963-0.93901 0.052002 0.27701 0.063995 0.54201 0.044983 0.804-0.005981 0.087006-0.031982 0.168-0.044983 0.25201-0.025024 0.174-0.052002 0.34599-0.10602 0.51298-0.028992 0.091003-0.076996 0.175-0.11301 0.26502-0.066986 0.155-0.13199 0.31299-0.22299 0.465-0.048004 0.080994-0.10898 0.162-0.164 0.239-0.104 0.155-0.20999 0.30699-0.336 0.455-0.05899 0.067001-0.12601 0.136-0.19 0.203-0.146 0.155-0.29398 0.31-0.46201 0.46201-0.057983 0.052002-0.12198 0.104-0.18399 0.15799-0.19 0.16101-0.39099 0.32199-0.604 0.47998-0.048981 0.032013-0.093994 0.068024-0.143 0.10101-0.24799 0.17801-0.50699 0.35199-0.77399 0.52002-0.015991 0.009979-0.035004 0.022003-0.052002 0.031982-0.29999 0.18802-0.61301 0.36798-0.93298 0.54602 0.20297 0.216 0.41998 0.409 0.57098 0.716-0.79401-0.025024-1.511 0.028961-2.186 0.12h-0.005982c-0.003998 0-0.003998 0-0.007019 0.002991-1.026 0.49701-2.065 0.95499-3.041 1.392-0.037994 0.015991-0.076996 0.035004-0.112 0.052002 0.76498-0.14603 1.449-0.20999 2.072-0.20999 2.488-0.007019 3.954 1.007 5.361 2.085 1.052 0.80701 2.075 1.646 3.47 2.114 2.826-1.939 5.461-4.065 4.76-9.524zm-119.78 59.497c-1.285 2.317-1.953 0.871-4.761 0.79401-1.404-4.59-4.358-9.438-2.379-15.071 2.663 3.684 1.826 10.862 5.552 13.486 0.875-1.766-2.447-8.321 0-11.901 0.981 6.162 3.631 10.649 5.552 15.865-2.325-0.052032-2.944-1.811-3.964-3.173zm11.104-4.758c0.85199 2.056 3.45 2.366 3.967 4.758-3.699 0.84802-5.956-2.373-3.967-4.758zm-34.904 33.318c2.903 2.792 5.336 9.803 5.552 12.692-4.924-1.159-4.612-7.55-5.552-12.692zm15.865 11.898c-4.996-0.77701-3.521-1.449-7.14 0.79501-2.686-2.072-2.563-6.957-2.379-11.898 2.247 0.66199 0.942 4.871 2.379 6.346 1.065-0.522 1.479-1.697 1.588-3.173 2.405-0.024994 0.769 3.99 3.173 3.964 1.466-0.11899 0.487-2.686 1.585-3.173 1.753 2.214 5.188 2.747 6.347 5.556-2.906 1.109-6.124-3.01-5.553 1.583zm4.762-7.931c2.453 0.71701 4.367 1.976 6.346 3.173-2.466 2.625-8.609-0.95499-6.346-3.173zm4.758 0.791c-0.044998-3.479 3.531 0.54199 6.346-0.79098-0.37801 1.533-5.275 2.573-6.346 0.79098z"/>
 <path d="m217.55 218.17c0 0.003006-0.002991 0.003006-0.005981 0.007004-1.033 0.952-2.015 2.078-2.931 3.183 0.005981-0.007004 0.009979-0.009995 0.015991-0.016998 1.162-1.004 2.173-2.04 2.921-3.173z"/>
 <path d="m259.37 231.08c1.785-1.556 4.094-2.599 6.375-3.66-2.288 1.058-4.59 2.101-6.375 3.66z"/>
 <path d="m258.75 234.21c0.97601-0.43701 2.015-0.89502 3.041-1.392-0.002991 0-0.006989 0.003021-0.009979 0.003021-1.016 0.49399-2.055 0.95196-3.031 1.389z"/>
 <polygon points="261.79 232.82 261.8 232.82 261.8 232.82"/>
 <path d="m261.78 232.82c0.002991 0 0.006989-0.002991 0.01001-0.002991l3e-3 -3e-3c-0.002991 0.002991-0.006012 0.002991-0.013 0.005981z"/>
 <path d="m227.15 210.62c-0.096985-0.080002-0.19397-0.158-0.29098-0.23801h-0.002991c0.097015 0.080002 0.198 0.158 0.29398 0.23801z"/>
 <path d="m212.27 223.24v0.003998c0.018997-0.016998 0.035004-0.029007 0.055008-0.046005-0.016998 0.013-0.037003 0.029007-0.055008 0.042007z"/>
 <path d="m212.18 224.11c-0.020004-0.291 0.063995-0.571 0.093994-0.858l-4e-3 3e-3c-0.029007 0.28699-0.11 0.564-0.089996 0.855z"/>
 <polygon points="212.27 223.25 212.26 223.25 212.26 223.25"/>
 <path d="m217.59 218.14c-0.01001 0.007004-0.017029 0.013-0.026001 0.020004l-3e-3 3e-3c0.008972-0.006989 0.018982-0.015991 0.028992-0.022995z"/>
 <path d="m213.08 220.68c0.12299-0.22 0.28-0.433 0.42297-0.64801-0.14597 0.216-0.30399 0.43301-0.42596 0.651 0 0 0-0.002991 0.002991-0.002991z"/>
 <path d="m213.35 222.85c0.40601-0.465 0.82202-0.96199 1.245-1.476-0.018982 0.014008-0.037964 0.029007-0.057983 0.046005-0.69998 0.601-1.439 1.19-2.211 1.781-0.020004 0.016998-0.035995 0.029007-0.054993 0.046005-0.029007 0.287-0.11301 0.567-0.094009 0.858 0.382-0.365 0.772-0.79401 1.173-1.255z"/>
 <path d="m222.13 211.75c-0.014008 0.005997-0.026001 0.005997-0.039001 0.013h-0.002991l-4e-3 3e-3c-0.12601 0.11299-0.28 0.239-0.41299 0.353-1.185 1.039-2.543 2.144-3.905 3.324-0.116 0.104-0.232 0.20001-0.349 0.304-0.49701 0.43901-0.98401 0.888-1.453 1.346-0.18097 0.17799-0.34497 0.36099-0.51999 0.543-0.271 0.28-0.53201 0.562-0.78101 0.849-0.203 0.235-0.39401 0.468-0.577 0.704-0.21698 0.27701-0.40399 0.558-0.58801 0.839-0.14298 0.216-0.29999 0.429-0.42297 0.648 0.099976-0.080002 0.19699-0.161 0.29401-0.24199 0.68399-0.552 1.346-1.106 1.985-1.675 0.41898-0.371 0.82898-0.746 1.22-1.127 0.207-0.2 0.40598-0.40001 0.60397-0.60001 0.574-0.591 1.123-1.186 1.595-1.789-0.087006 0.52-0.245 1.014-0.44202 1.491-0.015991 0.039001-0.039001 0.074005-0.054962 0.11301-0.19302 0.452-0.43604 0.888-0.71402 1.311 0.009979-0.007004 0.016998-0.013 0.026001-0.020004 0.40302-0.368 0.81598-0.703 1.239-1.001 0.091003-0.060989 0.185-0.105 0.27402-0.16399 0.36099-0.23201 0.72299-0.442 1.098-0.60101 0.216-0.08699 0.43802-0.11899 0.66101-0.17799 0.271-0.074005 0.543-0.171 0.823-0.19299 0.517-0.039001 1.05 0.002991 1.599 0.17099-0.36798 0.60701-0.801 1.146-1.256 1.662-0.12903 0.148-0.259 0.291-0.39102 0.433-0.38098 0.40401-0.77499 0.798-1.179 1.176-0.58099 0.54501-1.165 1.081-1.739 1.626-0.052002 0.048996-0.10098 0.098007-0.15198 0.146-0.52902 0.51401-1.046 1.04-1.517 1.614 0.31198-0.146 0.59399-0.31599 0.93002-0.44499-0.33301 0.129-0.70703 0.368-1.098 0.661-0.003021 0-0.003021 0.003998-0.006989 0.003998-0.013031 0.018997-0.024994 0.03801-0.037994 0.055008-0.28702 0.371-0.56201 0.759-0.80801 1.175-0.255 0.44199-0.48703 0.907-0.681 1.414 6.098-3.687 11.434-8.135 16.659-12.692-0.62-0.055008-1.165-0.188-1.666-0.36101-0.16699-0.059006-0.30698-0.146-0.461-0.213-0.31598-0.14-0.633-0.278-0.914-0.449-0.16797-0.103-0.32196-0.22299-0.48398-0.33499-0.25101-0.17801-0.50998-0.35301-0.74802-0.546-0.19699-0.155-0.39099-0.31-0.58099-0.472-0.096985-0.080002-0.19699-0.158-0.29401-0.23801-1.628 0.33701-3.204 0.798-4.727 1.363z"/>
 <path d="m221.68 216c0.51697-0.041992 1.05 0.003006 1.599 0.171-0.54999-0.16802-1.083-0.21001-1.599-0.171z"/>
 <path d="m214.53 221.42c0.02002-0.016998 0.041992-0.031998 0.062012-0.048996 0.002991-0.003006 0.005981-0.005997 0.01001-0.005997 0.91998-1.107 1.901-2.237 2.94-3.192 0.002991-0.003998 0.005981-0.003998 0.005981-0.007004 0.003998-0.002991 0.007019-0.002991 0.007019-0.007004 0.27698-0.42299 0.517-0.86099 0.71698-1.313 0.015991-0.039001 0.039001-0.074005 0.054993-0.11301 0.19699-0.478 0.35501-0.972 0.44199-1.491-0.47198 0.604-1.021 1.198-1.595 1.789-0.19696 0.19899-0.396 0.399-0.60397 0.59999-0.39102 0.38101-0.80102 0.75601-1.22 1.127-0.64002 0.56801-1.302 1.123-1.985 1.675-0.10101 0.081009-0.19702 0.16501-0.297 0.24501-0.15501 0.27499-0.24902 0.55299-0.35802 0.83299-0.22 0.571-0.388 1.146-0.44501 1.733 0.018997-0.013 0.03801-0.029007 0.055008-0.042007 0.771-0.59201 1.51-1.182 2.21-1.782z"/>
 <polygon points="214.59 221.38 214.6 221.37 214.6 221.37"/>
 <path d="m214.53 221.42c0.02002-0.016998 0.039001-0.031998 0.057983-0.04599 0.004028 0 0.004028-0.003006 0.004028-0.003006-0.02002 0.016998-0.041992 0.031998-0.062012 0.048996z"/>
 <path d="m217.98 222.38c-0.336 0.129-0.617 0.3-0.92999 0.44501-0.05899 0.070999-0.11301 0.142-0.17102 0.213 0 0.003006-0.003998 0.003006-0.003998 0.007004 0.003998 0 0.003998-0.003998 0.006989-0.003998 0.39002-0.293 0.76502-0.53201 1.098-0.66101z"/>
 <polygon points="222.09 211.76"/>
 <path d="m222.09 211.76c0.013-0.007004 0.024994-0.007004 0.039001-0.013-0.014008 0.005997-0.02301 0.009995-0.036011 0.009995l-0.002991 0.003006z"/>
 <path d="m213.07 220.68c-0.151 0.271-0.24501 0.552-0.354 0.82901 0.10899-0.28001 0.203-0.55801 0.358-0.83301-0.003998-1.5e-5 -0.003998-1.5e-5 -0.003998 0.003998z"/>
 <path d="m217.56 218.16c0.27798-0.423 0.521-0.858 0.71399-1.311-0.19998 0.45201-0.439 0.89101-0.71698 1.313l3e-3 -2e-3z"/>
 <path d="m213.37 220.43c-0.097015 0.081009-0.19403 0.162-0.29401 0.242-0.002991 0-0.002991 0.002991-0.002991 0.002991 0.099976-0.079987 0.19696-0.16399 0.297-0.245z"/>
 <path d="m146.33 122.56c0.935-0.12502 2.253 0.13698 2.379-0.79201-0.12599 0.92999-1.446 0.668-2.379 0.79201z"/>
 <path d="m148.71 121.77c-2.287-0.847-2.63-2.407-1.585-4.761-1.046 2.354-0.70401 3.914 1.585 4.761z"/>
 <path d="m149.16 125.2c-0.812-1.01-2.756-0.88802-2.83-2.637 0.072006 1.749 2.018 1.626 2.83 2.637z"/>
</svg>
